# xmcd
#
# Track frame offsets:
#	150
#	18266
#	38771
#	51581
#	70029
#	88245
#	109858
#	127844
#	144646
#	157805
#	168664
#	182166
#
# Disc length: 2557 seconds
#
# Revision: 0
# Processed by: cddbd v1.4PL0 Copyright (c) Steve Scherf et al.
# Submitted via: audiograbber 1.80
#
DISCID=a009fb0c
DTITLE=Casey Chambers - The Captain
DYEAR=1900
DGENRE=
TTITLE0=Cry Like A Baby
TTITLE1=The Captain
TTITLE2=This Flower
TTITLE3=You Got The Car
TTITLE4=These Pines
TTITLE5=Don't Talk Back
TTITLE6=Southern Kind Of Life
TTITLE7=Mr Baylis
TTITLE8=The Hard Way
TTITLE9=Last Hard Bible
TTITLE10=Don't Go
TTITLE11=We're All Gonna Die Someday
EXTD=
EXTT0=
EXTT1=
EXTT2=
EXTT3=
EXTT4=
EXTT5=
EXTT6=
EXTT7=
EXTT8=
EXTT9=
EXTT10=
EXTT11=
PLAYORDER=
